# xmcd
#
# Track frame offsets:
#	150
#	17140
#	29943
#	47735
#	62740
#	80526
#	98142
#	117696
#	130763
#	142080
#	158202
#
# Disc length: 2420 seconds
#
# Revision: 1
# Processed by: cddbd v1.5.2PL0 Copyright (c) Steve Scherf et al.
# Submitted via: audiograbber 1.83.01
#
DISCID=a009720b
DTITLE=Steve James - Blues and Folk Songs, Vol. 1
DYEAR=2018
DGENRE=Blues
TTITLE0=Seattle Blues
TTITLE1=Bulldoze Blues
TTITLE2=Stewball
TTITLE3=All in Down and Out Blues
TTITLE4=Snake Doctor (How Do You Want It Done)
TTITLE5=Copeland's Fancy
TTITLE6=Stack Lee's Blues (Pt. 2)
TTITLE7=Yo Yo Blues
TTITLE8=Sugar Babe
TTITLE9=Lucy Mae
TTITLE10=Mean Town Blues
EXTD=
EXTT0=
EXTT1=
EXTT2=
EXTT3=
EXTT4=
EXTT5=
EXTT6=
EXTT7=
EXTT8=
EXTT9=
EXTT10=
PLAYORDER=
